<svg width="16" height="16" viewBox="0 0 16 16" fill="none" xmlns="http://www.w3.org/2000/svg">
<g id="email 1" clip-path="url(#clip0_1_107)">
<path id="Layer 2" d="M0 1.8805V1.33333C0 0.979711 0.105357 0.640573 0.292893 0.390524C0.48043 0.140476 0.734784 0 1 0L15 0C15.2652 0 15.5196 0.140476 15.7071 0.390524C15.8946 0.640573 16 0.979711 16 1.33333V1.8805L8 8.54717L0 1.8805ZM8.265 9.89883C8.18551 9.96498 8.0937 10 8 10C7.9063 10 7.81449 9.96498 7.735 9.89883L0 3.45283V14.6667C0 15.0203 0.105357 15.3594 0.292893 15.6095C0.48043 15.8595 0.734784 16 1 16H15C15.2652 16 15.5196 15.8595 15.7071 15.6095C15.8946 15.3594 16 15.0203 16 14.6667V3.45283L8.265 9.89883Z" fill="url(#paint0_linear_1_107)"/>
</g>
<defs>
<linearGradient id="paint0_linear_1_107" x1="8" y1="0" x2="8" y2="16" gradientUnits="userSpaceOnUse">
<stop stop-color="#FF004D"/>
<stop offset="1" stop-color="#D62A5D"/>
</linearGradient>
<clipPath id="clip0_1_107">
<rect width="16" height="16" fill="white"/>
</clipPath>
</defs>
</svg>
