<svg width="142" height="106" viewBox="0 0 142 106" fill="none" xmlns="http://www.w3.org/2000/svg">
<path d="M0.992004 12.296H5.64801V42.536H23.264V47H0.992004V12.296Z" fill="black"/>
<path d="M38.0034 47.48C36.1474 47.48 34.4514 47.08 32.9154 46.28C31.4114 45.48 30.2114 44.312 29.3154 42.776C28.4514 41.208 28.0194 39.304 28.0194 37.064C28.0194 34.856 28.4834 32.952 29.4114 31.352C30.3394 29.72 31.5714 28.472 33.1074 27.608C34.6754 26.744 36.3874 26.312 38.2434 26.312C40.0994 26.312 41.6674 26.744 42.9474 27.608C44.2274 28.44 45.2034 29.432 45.8754 30.584L45.5874 31.352L46.0194 27.128H50.1474V47H45.6834V41.816L46.1634 42.968C46.0354 43.288 45.7474 43.704 45.2994 44.216C44.8834 44.696 44.3074 45.192 43.5714 45.704C42.8674 46.216 42.0514 46.648 41.1234 47C40.1954 47.32 39.1554 47.48 38.0034 47.48ZM39.2034 43.784C40.3234 43.784 41.3314 43.576 42.2274 43.16C43.1234 42.744 43.8594 42.168 44.4354 41.432C45.0434 40.664 45.4594 39.752 45.6834 38.696V34.808C45.4274 33.848 44.9794 33.016 44.3394 32.312C43.6994 31.576 42.9314 31.016 42.0354 30.632C41.1394 30.216 40.1474 30.008 39.0594 30.008C37.8754 30.008 36.7874 30.296 35.7954 30.872C34.8034 31.448 34.0034 32.248 33.3954 33.272C32.8194 34.296 32.5314 35.496 32.5314 36.872C32.5314 38.152 32.8354 39.32 33.4434 40.376C34.0514 41.432 34.8674 42.264 35.8914 42.872C36.9154 43.48 38.0194 43.784 39.2034 43.784Z" fill="black"/>
<path d="M61.8564 27.128L62.2884 32.888L62.0484 32.12C62.5604 30.904 63.2964 29.88 64.2564 29.048C65.2484 28.184 66.2724 27.528 67.3284 27.08C68.4164 26.6 69.3604 26.36 70.1604 26.36L69.9204 30.776C68.4164 30.68 67.0884 30.968 65.9364 31.64C64.8164 32.312 63.9204 33.208 63.2484 34.328C62.6084 35.448 62.2884 36.648 62.2884 37.928V47H57.8724V27.128H61.8564Z" fill="black"/>
<path d="M83.7065 47.48C81.8505 47.48 80.1545 47.08 78.6185 46.28C77.1145 45.48 75.9145 44.312 75.0185 42.776C74.1545 41.208 73.7225 39.304 73.7225 37.064C73.7225 34.856 74.1865 32.952 75.1145 31.352C76.0425 29.72 77.2745 28.472 78.8105 27.608C80.3785 26.744 82.0905 26.312 83.9465 26.312C85.8025 26.312 87.3705 26.744 88.6505 27.608C89.9305 28.44 90.9065 29.432 91.5785 30.584L91.2905 31.352L91.7225 27.128H95.8505V47H91.3865V41.816L91.8665 42.968C91.7385 43.288 91.4505 43.704 91.0025 44.216C90.5865 44.696 90.0105 45.192 89.2745 45.704C88.5705 46.216 87.7545 46.648 86.8265 47C85.8985 47.32 84.8585 47.48 83.7065 47.48ZM84.9065 43.784C86.0265 43.784 87.0345 43.576 87.9305 43.16C88.8265 42.744 89.5625 42.168 90.1385 41.432C90.7465 40.664 91.1625 39.752 91.3865 38.696V34.808C91.1305 33.848 90.6825 33.016 90.0425 32.312C89.4025 31.576 88.6345 31.016 87.7385 30.632C86.8425 30.216 85.8505 30.008 84.7625 30.008C83.5785 30.008 82.4905 30.296 81.4985 30.872C80.5065 31.448 79.7065 32.248 79.0985 33.272C78.5225 34.296 78.2345 35.496 78.2345 36.872C78.2345 38.152 78.5385 39.32 79.1465 40.376C79.7545 41.432 80.5705 42.264 81.5945 42.872C82.6185 43.48 83.7225 43.784 84.9065 43.784Z" fill="black"/>
<path d="M22.992 54.296H43.584V58.76H27.648V69.848H41.616V74.264H27.648V89H22.992V54.296Z" fill="black"/>
<path d="M53.1533 69.128L53.5853 74.888L53.3453 74.12C53.8573 72.904 54.5933 71.88 55.5533 71.048C56.5453 70.184 57.5693 69.528 58.6253 69.08C59.7133 68.6 60.6573 68.36 61.4573 68.36L61.2173 72.776C59.7133 72.68 58.3853 72.968 57.2333 73.64C56.1133 74.312 55.2173 75.208 54.5453 76.328C53.9053 77.448 53.5853 78.648 53.5853 79.928V89H49.1693V69.128H53.1533Z" fill="black"/>
<path d="M75.5884 89.48C73.3164 89.48 71.3644 89.032 69.7324 88.136C68.1004 87.208 66.8364 85.96 65.9404 84.392C65.0764 82.792 64.6444 80.968 64.6444 78.92C64.6444 76.968 65.1404 75.192 66.1324 73.592C67.1244 71.992 68.4524 70.712 70.1164 69.752C71.7804 68.792 73.6364 68.312 75.6844 68.312C78.3084 68.312 80.4844 69.08 82.2124 70.616C83.9404 72.152 85.1084 74.264 85.7164 76.952L69.3484 82.712L68.2924 80.072L81.7324 75.176L80.7724 75.8C80.3884 74.744 79.7484 73.832 78.8524 73.064C77.9564 72.264 76.7884 71.864 75.3484 71.864C74.1324 71.864 73.0444 72.168 72.0844 72.776C71.1244 73.352 70.3724 74.152 69.8284 75.176C69.2844 76.2 69.0124 77.368 69.0124 78.68C69.0124 80.056 69.3004 81.272 69.8764 82.328C70.4524 83.352 71.2364 84.168 72.2284 84.776C73.2524 85.352 74.4044 85.64 75.6844 85.64C76.5484 85.64 77.3804 85.48 78.1804 85.16C79.0124 84.84 79.7804 84.424 80.4844 83.912L82.5484 87.224C81.5564 87.896 80.4364 88.44 79.1884 88.856C77.9724 89.272 76.7724 89.48 75.5884 89.48Z" fill="black"/>
<path d="M91.3099 69.128H95.7739V89H91.3099V69.128ZM90.9739 61.928C90.9739 61.224 91.2459 60.632 91.7899 60.152C92.3659 59.672 92.9899 59.432 93.6619 59.432C94.3339 59.432 94.9259 59.672 95.4379 60.152C95.9819 60.632 96.2539 61.224 96.2539 61.928C96.2539 62.664 95.9819 63.272 95.4379 63.752C94.9259 64.2 94.3339 64.424 93.6619 64.424C92.9899 64.424 92.3659 64.184 91.7899 63.704C91.2459 63.224 90.9739 62.632 90.9739 61.928Z" fill="black"/>
<path d="M107.481 69.128L107.913 74.888L107.673 74.12C108.185 72.904 108.921 71.88 109.881 71.048C110.873 70.184 111.897 69.528 112.953 69.08C114.041 68.6 114.985 68.36 115.785 68.36L115.545 72.776C114.041 72.68 112.713 72.968 111.561 73.64C110.441 74.312 109.545 75.208 108.873 76.328C108.233 77.448 107.913 78.648 107.913 79.928V89H103.497V69.128H107.481Z" fill="black"/>
<path d="M129.917 89.48C127.645 89.48 125.693 89.032 124.061 88.136C122.429 87.208 121.165 85.96 120.269 84.392C119.405 82.792 118.973 80.968 118.973 78.92C118.973 76.968 119.469 75.192 120.461 73.592C121.453 71.992 122.781 70.712 124.445 69.752C126.109 68.792 127.965 68.312 130.013 68.312C132.637 68.312 134.813 69.08 136.541 70.616C138.269 72.152 139.437 74.264 140.045 76.952L123.677 82.712L122.621 80.072L136.061 75.176L135.101 75.8C134.717 74.744 134.077 73.832 133.181 73.064C132.285 72.264 131.117 71.864 129.677 71.864C128.461 71.864 127.373 72.168 126.413 72.776C125.453 73.352 124.701 74.152 124.157 75.176C123.613 76.2 123.341 77.368 123.341 78.68C123.341 80.056 123.629 81.272 124.205 82.328C124.781 83.352 125.565 84.168 126.557 84.776C127.581 85.352 128.733 85.64 130.013 85.64C130.877 85.64 131.709 85.48 132.509 85.16C133.341 84.84 134.109 84.424 134.813 83.912L136.877 87.224C135.885 87.896 134.765 88.44 133.517 88.856C132.301 89.272 131.101 89.48 129.917 89.48Z" fill="black"/>
<path d="M0 0H72V7H0V0Z" fill="#0D0D0D"/>
<path d="M68 99H140V106H68V99Z" fill="#FF004D"/>
</svg>
