<svg width="20" height="20" viewBox="0 0 20 20" fill="none" xmlns="http://www.w3.org/2000/svg">
<g id="whatsapp 1" clip-path="url(#clip0_1_109)">
<path id="Vector" d="M19.9988 14.9444C19.9988 15.0539 19.9954 15.2914 19.9889 15.4748C19.9728 15.9237 19.9372 16.503 19.8834 16.7669C19.8025 17.1635 19.6804 17.5378 19.5212 17.8494C19.3329 18.218 19.0926 18.5481 18.8072 18.833C18.5223 19.1174 18.1925 19.3567 17.8245 19.5443C17.5113 19.7039 17.1346 19.8261 16.7357 19.9066C16.4744 19.9593 15.8995 19.9942 15.4535 20.0101C15.2699 20.0167 15.0324 20.02 14.9233 20.02L5.07509 20.0184C4.96558 20.0184 4.72812 20.015 4.54466 20.0084C4.09577 19.9923 3.51655 19.9568 3.25263 19.903C2.85603 19.8221 2.48167 19.7 2.17011 19.5408C1.80151 19.3525 1.47138 19.1122 1.18644 18.8268C0.902062 18.5419 0.662765 18.2121 0.475206 17.8441C0.315558 17.5308 0.193409 17.1542 0.112882 16.7553C0.0601477 16.494 0.0252454 15.9191 0.00936646 15.4731C0.00284302 15.2895 -0.000457764 15.052 -0.000457764 14.9429L0.00110474 5.09467C0.00110474 4.98516 0.00444458 4.74768 0.0110266 4.56422C0.0271399 4.11533 0.0627063 3.53612 0.116515 3.27221C0.197394 2.87561 0.319464 2.50125 0.478663 2.18967C0.667003 1.8211 0.907257 1.49094 1.19271 1.206C1.47755 0.921643 1.80739 0.682327 2.17542 0.494749C2.48864 0.335139 2.86534 0.212991 3.26419 0.132463C3.52546 0.0797095 4.10036 0.0448071 4.54638 0.0289478C4.73001 0.0224048 4.96757 0.019104 5.07663 0.019104L14.9248 0.020686C15.0343 0.020686 15.2718 0.0240259 15.4553 0.0306079C15.9042 0.0467212 16.4834 0.0822876 16.7473 0.136096C17.1439 0.216975 17.5182 0.339045 17.8298 0.498245C18.1984 0.686584 18.5285 0.926838 18.8135 1.21229C19.0978 1.49713 19.3371 1.82696 19.5247 2.195C19.6843 2.50823 19.8065 2.8849 19.887 3.28375C19.9398 3.54504 19.9746 4.11992 19.9905 4.56596C19.9971 4.74959 20.0004 4.98713 20.0004 5.09623L19.9988 14.9444V14.9444Z" fill="url(#paint0_linear_1_109)"/>
<path id="Vector_2" d="M15.2989 4.75089C13.9448 3.39567 12.144 2.64896 10.2254 2.64819C6.27219 2.64819 3.05479 5.86437 3.05321 9.81757C3.0527 11.0812 3.38296 12.3147 4.01057 13.402L2.99307 17.1174L6.79512 16.1204C7.8427 16.6916 9.02211 16.9926 10.2225 16.9931H10.2255C14.1782 16.9931 17.3959 13.7765 17.3975 9.82327C17.3983 7.90751 16.653 6.1061 15.2989 4.75089V4.75089ZM10.2255 15.7822H10.223C9.15335 15.7817 8.10421 15.4945 7.18895 14.9515L6.97126 14.8224L4.71506 15.414L5.31729 13.215L5.17551 12.9895C4.57879 12.0407 4.26364 10.944 4.26411 9.81804C4.2654 6.53231 6.9396 3.85913 10.2278 3.85913C11.82 3.85974 13.3167 4.48044 14.4422 5.60683C15.5677 6.73321 16.1872 8.2305 16.1866 9.82282C16.1853 13.1088 13.5111 15.7822 10.2255 15.7822V15.7822ZM13.4953 11.319C13.316 11.2293 12.435 10.7959 12.2707 10.7361C12.1065 10.6763 11.987 10.6464 11.8675 10.8258C11.7481 11.0051 11.4046 11.4087 11.3001 11.5282C11.1955 11.6478 11.091 11.6627 10.9118 11.5731C10.7326 11.4834 10.1552 11.2942 9.47067 10.6839C8.93795 10.2089 8.57827 9.62218 8.47374 9.4428C8.3692 9.26345 8.46262 9.16651 8.55233 9.07718C8.63294 8.99692 8.73153 8.86794 8.82114 8.76333C8.91073 8.65874 8.94061 8.58398 9.00034 8.46442C9.06008 8.34485 9.0302 8.24023 8.9854 8.15056C8.94061 8.06089 8.58219 7.17909 8.43286 6.8204C8.28741 6.47106 8.13963 6.51833 8.02963 6.51284C7.92522 6.50765 7.80563 6.50655 7.68618 6.50655C7.56672 6.50655 7.37256 6.55138 7.20831 6.73073C7.04405 6.91009 6.5811 7.34351 6.5811 8.22528C6.5811 9.10706 7.22323 9.95896 7.31284 10.0785C7.40245 10.1981 8.57649 12.0076 10.3742 12.7836C10.8018 12.9682 11.1356 13.0784 11.3958 13.161C11.8251 13.2973 12.2158 13.2781 12.5246 13.232C12.8689 13.1806 13.5848 12.7986 13.7342 12.3801C13.8835 11.9616 13.8835 11.603 13.8387 11.5282C13.7939 11.4535 13.6745 11.4087 13.4953 11.319V11.319Z" fill="white"/>
</g>
<defs>
<linearGradient id="paint0_linear_1_109" x1="9.99995" y1="0.019104" x2="9.99995" y2="20.02" gradientUnits="userSpaceOnUse">
<stop stop-color="#FF004D"/>
<stop offset="1" stop-color="#D62A5D"/>
</linearGradient>
<clipPath id="clip0_1_109">
<rect width="20" height="20" fill="white"/>
</clipPath>
</defs>
</svg>
