<svg width="537" height="188" viewBox="0 0 537 188" fill="none" xmlns="http://www.w3.org/2000/svg">
<path d="M8.16 58H3.696L8.112 22.192H8.16L23.184 48.016L21.216 47.632L42.528 22.192H42.576L38.16 58H33.552L36.672 32.752V35.104L21.312 53.632H21.216L10.176 35.104L11.232 32.944L8.16 58ZM64.9313 58.336C62.8193 58.336 60.7713 57.984 58.7873 57.28C56.8033 56.576 55.0113 55.536 53.4113 54.16C51.8433 52.784 50.5953 51.072 49.6673 49.024C48.7393 46.976 48.2753 44.608 48.2753 41.92C48.2753 39.808 48.6753 37.648 49.4753 35.44C50.2753 33.2 51.4593 31.152 53.0273 29.296C54.5953 27.408 56.5633 25.888 58.9313 24.736C61.2993 23.552 64.0353 22.96 67.1393 22.96C69.2513 22.96 71.2993 23.312 73.2833 24.016C75.2993 24.72 77.0913 25.76 78.6593 27.136C80.2273 28.512 81.4753 30.24 82.4033 32.32C83.3313 34.368 83.7953 36.736 83.7953 39.424C83.7953 41.536 83.3953 43.712 82.5953 45.952C81.7953 48.16 80.6113 50.208 79.0433 52.096C77.4753 53.952 75.5073 55.456 73.1393 56.608C70.8033 57.76 68.0673 58.336 64.9313 58.336ZM65.0273 53.872C67.4273 53.872 69.5073 53.44 71.2673 52.576C73.0273 51.68 74.4673 50.528 75.5873 49.12C76.7393 47.712 77.5873 46.176 78.1313 44.512C78.7073 42.848 78.9953 41.232 78.9953 39.664C78.9953 38 78.6913 36.448 78.0833 35.008C77.5073 33.536 76.6753 32.24 75.5873 31.12C74.4993 29.968 73.2193 29.072 71.7473 28.432C70.3073 27.76 68.7073 27.424 66.9473 27.424C64.5473 27.424 62.4673 27.872 60.7073 28.768C58.9793 29.632 57.5393 30.768 56.3873 32.176C55.2673 33.584 54.4353 35.12 53.8913 36.784C53.3473 38.448 53.0753 40.08 53.0753 41.68C53.0753 43.312 53.3633 44.864 53.9393 46.336C54.5153 47.808 55.3313 49.104 56.3873 50.224C57.4753 51.344 58.7393 52.24 60.1793 52.912C61.6513 53.552 63.2673 53.872 65.0273 53.872ZM89.4773 58L93.7493 23.296H103.877C107.109 23.296 109.797 23.792 111.941 24.784C114.085 25.744 115.765 27.04 116.981 28.672C118.197 30.272 119.029 32.096 119.477 34.144C119.925 36.16 120.069 38.24 119.909 40.384C119.717 43.136 119.093 45.616 118.037 47.824C116.981 50 115.589 51.84 113.861 53.344C112.133 54.848 110.181 56 108.005 56.8C105.829 57.6 103.525 58 101.093 58H89.4773ZM94.6613 53.536H100.997C102.917 53.536 104.709 53.248 106.373 52.672C108.069 52.096 109.541 51.248 110.789 50.128C112.069 49.008 113.093 47.616 113.861 45.952C114.629 44.256 115.077 42.304 115.205 40.096C115.365 37.952 115.173 36.112 114.629 34.576C114.085 33.008 113.269 31.728 112.181 30.736C111.093 29.712 109.829 28.96 108.389 28.48C106.981 28 105.461 27.76 103.829 27.76H97.7812L94.6613 53.536ZM129.843 23.296H152.355L151.827 27.616H134.067L132.771 38.416H148.611L148.035 42.784H132.195L130.899 53.536H149.331L148.803 58H125.571L129.843 23.296ZM161.202 23.296H165.81L162.114 53.536H179.778L179.202 58H156.93L161.202 23.296ZM202.181 58.336C200.069 58.336 198.021 57.984 196.037 57.28C194.053 56.576 192.261 55.536 190.661 54.16C189.093 52.784 187.845 51.072 186.917 49.024C185.989 46.976 185.525 44.608 185.525 41.92C185.525 39.808 185.925 37.648 186.725 35.44C187.525 33.2 188.709 31.152 190.277 29.296C191.845 27.408 193.813 25.888 196.181 24.736C198.549 23.552 201.285 22.96 204.389 22.96C206.501 22.96 208.549 23.312 210.533 24.016C212.549 24.72 214.341 25.76 215.909 27.136C217.477 28.512 218.725 30.24 219.653 32.32C220.581 34.368 221.045 36.736 221.045 39.424C221.045 41.536 220.645 43.712 219.845 45.952C219.045 48.16 217.861 50.208 216.293 52.096C214.725 53.952 212.757 55.456 210.389 56.608C208.053 57.76 205.317 58.336 202.181 58.336ZM202.277 53.872C204.677 53.872 206.757 53.44 208.517 52.576C210.277 51.68 211.717 50.528 212.837 49.12C213.989 47.712 214.837 46.176 215.381 44.512C215.957 42.848 216.245 41.232 216.245 39.664C216.245 38 215.941 36.448 215.333 35.008C214.757 33.536 213.925 32.24 212.837 31.12C211.749 29.968 210.469 29.072 208.997 28.432C207.557 27.76 205.957 27.424 204.197 27.424C201.797 27.424 199.717 27.872 197.957 28.768C196.229 29.632 194.789 30.768 193.637 32.176C192.517 33.584 191.685 35.12 191.141 36.784C190.597 38.448 190.325 40.08 190.325 41.68C190.325 43.312 190.613 44.864 191.189 46.336C191.765 47.808 192.581 49.104 193.637 50.224C194.725 51.344 195.989 52.24 197.429 52.912C198.901 53.552 200.517 53.872 202.277 53.872ZM245.39 23.296H267.902L267.374 27.616H249.614L248.318 38.416H264.158L263.582 42.784H247.742L246.446 53.536H264.878L264.35 58H241.118L245.39 23.296ZM273.389 23.296H279.245L297.629 58H291.677L273.389 23.296ZM268.685 58L282.989 39.136L284.717 43.648L274.397 58H268.685ZM285.629 37.456L295.709 23.296H301.373L287.645 41.344L285.629 37.456ZM316.856 23.296C318.424 23.296 319.864 23.504 321.176 23.92C322.52 24.336 323.672 24.944 324.632 25.744C325.624 26.544 326.392 27.536 326.936 28.72C327.48 29.872 327.752 31.216 327.752 32.752C327.752 34.192 327.512 35.648 327.032 37.12C326.552 38.56 325.784 39.904 324.728 41.152C323.704 42.368 322.36 43.36 320.696 44.128C319.032 44.864 317.032 45.232 314.696 45.232H309.704L308.168 58H303.368L307.64 23.296H316.856ZM315.128 40.768C316.6 40.768 317.832 40.512 318.824 40C319.816 39.488 320.6 38.848 321.176 38.08C321.784 37.28 322.216 36.464 322.472 35.632C322.76 34.8 322.904 34.064 322.904 33.424C322.904 32.528 322.696 31.648 322.28 30.784C321.864 29.92 321.208 29.216 320.312 28.672C319.416 28.096 318.232 27.808 316.76 27.808H311.864L310.28 40.768H315.128ZM335.671 23.296H358.183L357.655 27.616H339.895L338.599 38.416H354.439L353.863 42.784H338.023L336.727 53.536H355.159L354.631 58H331.399L335.671 23.296ZM376.247 23.296C377.975 23.296 379.543 23.536 380.951 24.016C382.391 24.464 383.607 25.152 384.599 26.08C385.623 26.976 386.359 28.096 386.807 29.44C387.255 30.752 387.383 32.288 387.191 34.048C386.999 35.424 386.615 36.768 386.039 38.08C385.495 39.392 384.695 40.592 383.639 41.68C382.583 42.736 381.271 43.6 379.703 44.272C378.135 44.912 376.263 45.232 374.087 45.232H368.951L367.367 58H362.759L367.031 23.296H376.247ZM374.567 40.768C376.391 40.768 377.847 40.416 378.935 39.712C380.055 39.008 380.871 38.144 381.383 37.12C381.927 36.096 382.263 35.136 382.391 34.24C382.487 33.536 382.439 32.816 382.247 32.08C382.087 31.312 381.783 30.608 381.335 29.968C380.919 29.328 380.295 28.8 379.463 28.384C378.663 27.968 377.655 27.76 376.439 27.76H371.062L369.527 40.768H374.567ZM379.895 43.408L387.239 58H381.815L374.375 43.552L379.895 43.408ZM398.718 23.296H403.47L399.246 58H394.446L398.718 23.296ZM413.531 23.296H436.043L435.515 27.616H417.755L416.459 38.416H432.299L431.723 42.784H415.883L414.587 53.536H433.019L432.491 58H409.259L413.531 23.296ZM470.666 59.104H470.522L447.05 31.792L448.298 32.224L445.226 58H440.618L444.986 22.24H445.178L468.362 49.648L467.354 49.312L470.426 23.296H475.034L470.666 59.104ZM482.517 23.296H505.557L504.981 27.856H495.765L492.069 58H487.269L490.965 27.856H481.941L482.517 23.296ZM512.999 23.296H535.511L534.983 27.616H517.223L515.927 38.416H531.767L531.191 42.784H515.351L514.055 53.536H532.487L531.959 58H508.727L512.999 23.296ZM7.968 71.296H30.48L29.952 75.616H12.192L10.896 86.416H26.736L26.16 90.784H10.32L9.024 101.536H27.456L26.928 106H3.696L7.968 71.296ZM39.5194 106H35.0554L39.4714 70.192H39.5194L54.5434 96.016L52.5754 95.632L73.8874 70.192H73.9354L69.5194 106H64.9114L68.0314 80.752V83.104L52.6714 101.632H52.5754L41.5354 83.104L42.5914 80.944L39.5194 106ZM106.073 107.392L95.2733 71.296H100.793L108.761 99.76L106.121 99.28L120.425 71.296H125.897L106.265 107.392H106.073ZM132.749 71.296H155.261L154.733 75.616H136.973L135.677 86.416H151.517L150.941 90.784H135.101L133.805 101.536H152.237L151.709 106H128.477L132.749 71.296ZM189.885 107.104H189.741L166.269 79.792L167.517 80.224L164.445 106H159.837L164.205 70.24H164.397L187.581 97.648L186.573 97.312L189.645 71.296H194.253L189.885 107.104ZM200.055 106L204.327 71.296H214.455C217.687 71.296 220.375 71.792 222.519 72.784C224.663 73.744 226.343 75.04 227.559 76.672C228.775 78.272 229.607 80.096 230.055 82.144C230.503 84.16 230.647 86.24 230.487 88.384C230.295 91.136 229.671 93.616 228.615 95.824C227.559 98 226.167 99.84 224.439 101.344C222.711 102.848 220.759 104 218.583 104.8C216.407 105.6 214.103 106 211.671 106H200.055ZM205.239 101.536H211.575C213.495 101.536 215.287 101.248 216.951 100.672C218.647 100.096 220.119 99.248 221.367 98.128C222.647 97.008 223.671 95.616 224.439 93.952C225.207 92.256 225.655 90.304 225.783 88.096C225.943 85.952 225.751 84.112 225.207 82.576C224.663 81.008 223.847 79.728 222.759 78.736C221.671 77.712 220.407 76.96 218.967 76.48C217.559 76 216.039 75.76 214.407 75.76H208.359L205.239 101.536ZM235.33 106H230.77L250.354 69.856H250.642L261.346 106H256.018L248.146 77.296L251.746 75.136L235.33 106ZM241.282 92.848H254.194L255.25 96.88H239.458L241.282 92.848ZM289.002 78.112C287.882 77.408 286.618 76.784 285.21 76.24C283.802 75.696 282.41 75.408 281.034 75.376C279.914 75.344 278.954 75.472 278.154 75.76C277.386 76.016 276.73 76.368 276.186 76.816C275.674 77.264 275.29 77.776 275.034 78.352C274.778 78.928 274.634 79.488 274.602 80.032C274.538 81.024 274.81 81.904 275.418 82.672C276.058 83.44 276.906 84.128 277.962 84.736C279.018 85.312 280.122 85.872 281.274 86.416C282.618 87.024 283.898 87.744 285.114 88.576C286.362 89.376 287.354 90.416 288.09 91.696C288.826 92.976 289.098 94.64 288.906 96.688C288.81 97.872 288.474 99.056 287.898 100.24C287.354 101.424 286.57 102.48 285.546 103.408C284.554 104.336 283.306 105.072 281.802 105.616C280.33 106.16 278.602 106.4 276.618 106.336C275.114 106.272 273.674 106.048 272.298 105.664C270.954 105.248 269.69 104.736 268.506 104.128C267.354 103.488 266.314 102.768 265.386 101.968L267.882 98.464C268.586 99.104 269.418 99.712 270.378 100.288C271.338 100.832 272.362 101.28 273.45 101.632C274.57 101.952 275.658 102.144 276.714 102.208C278.09 102.208 279.306 101.984 280.362 101.536C281.45 101.056 282.314 100.384 282.954 99.52C283.626 98.624 284.01 97.6 284.106 96.448C284.17 95.424 283.914 94.528 283.338 93.76C282.794 92.96 282.058 92.272 281.13 91.696C280.234 91.088 279.242 90.544 278.154 90.064C277.162 89.616 276.138 89.104 275.082 88.528C274.058 87.952 273.114 87.296 272.25 86.56C271.386 85.824 270.714 84.928 270.234 83.872C269.786 82.816 269.642 81.584 269.802 80.176C269.962 78.32 270.538 76.72 271.53 75.376C272.522 74.032 273.818 73.008 275.418 72.304C277.05 71.6 278.874 71.248 280.89 71.248C282.394 71.312 283.77 71.52 285.018 71.872C286.266 72.192 287.402 72.592 288.426 73.072C289.45 73.552 290.378 74.08 291.21 74.656L289.002 78.112ZM309.462 106L313.734 71.296H323.862C327.094 71.296 329.782 71.792 331.926 72.784C334.07 73.744 335.75 75.04 336.966 76.672C338.182 78.272 339.014 80.096 339.462 82.144C339.91 84.16 340.054 86.24 339.894 88.384C339.702 91.136 339.078 93.616 338.022 95.824C336.966 98 335.574 99.84 333.846 101.344C332.118 102.848 330.166 104 327.99 104.8C325.814 105.6 323.51 106 321.078 106H309.462ZM314.646 101.536H320.982C322.902 101.536 324.694 101.248 326.358 100.672C328.054 100.096 329.526 99.248 330.774 98.128C332.054 97.008 333.078 95.616 333.846 93.952C334.614 92.256 335.062 90.304 335.19 88.096C335.35 85.952 335.158 84.112 334.614 82.576C334.07 81.008 333.254 79.728 332.166 78.736C331.078 77.712 329.814 76.96 328.374 76.48C326.966 76 325.446 75.76 323.814 75.76H317.766L314.646 101.536ZM349.827 71.296H372.339L371.811 75.616H354.051L352.755 86.416H368.595L368.019 90.784H352.179L350.883 101.536H369.315L368.787 106H345.555L349.827 71.296ZM17.184 119.296C18.912 119.296 20.48 119.536 21.888 120.016C23.328 120.464 24.544 121.152 25.536 122.08C26.56 122.976 27.296 124.096 27.744 125.44C28.192 126.752 28.32 128.288 28.128 130.048C27.936 131.424 27.552 132.768 26.976 134.08C26.432 135.392 25.632 136.592 24.576 137.68C23.52 138.736 22.208 139.6 20.64 140.272C19.072 140.912 17.2 141.232 15.024 141.232H9.888L8.304 154H3.696L7.968 119.296H17.184ZM15.504 136.768C17.328 136.768 18.784 136.416 19.872 135.712C20.992 135.008 21.808 134.144 22.32 133.12C22.864 132.096 23.2 131.136 23.328 130.24C23.424 129.536 23.376 128.816 23.184 128.08C23.024 127.312 22.72 126.608 22.272 125.968C21.856 125.328 21.232 124.8 20.4 124.384C19.6 123.968 18.592 123.76 17.376 123.76H12L10.464 136.768H15.504ZM20.832 139.408L28.176 154H22.752L15.312 139.552L20.832 139.408ZM51.3375 154.336C49.2255 154.336 47.1775 153.984 45.1935 153.28C43.2095 152.576 41.4175 151.536 39.8175 150.16C38.2495 148.784 37.0015 147.072 36.0735 145.024C35.1455 142.976 34.6815 140.608 34.6815 137.92C34.6815 135.808 35.0815 133.648 35.8815 131.44C36.6815 129.2 37.8655 127.152 39.4335 125.296C41.0015 123.408 42.9695 121.888 45.3375 120.736C47.7055 119.552 50.4415 118.96 53.5455 118.96C55.6575 118.96 57.7055 119.312 59.6895 120.016C61.7055 120.72 63.4975 121.76 65.0655 123.136C66.6335 124.512 67.8815 126.24 68.8095 128.32C69.7375 130.368 70.2015 132.736 70.2015 135.424C70.2015 137.536 69.8015 139.712 69.0015 141.952C68.2015 144.16 67.0175 146.208 65.4495 148.096C63.8815 149.952 61.9135 151.456 59.5455 152.608C57.2095 153.76 54.4735 154.336 51.3375 154.336ZM51.4335 149.872C53.8335 149.872 55.9135 149.44 57.6735 148.576C59.4335 147.68 60.8735 146.528 61.9935 145.12C63.1455 143.712 63.9935 142.176 64.5375 140.512C65.1135 138.848 65.4015 137.232 65.4015 135.664C65.4015 134 65.0975 132.448 64.4895 131.008C63.9135 129.536 63.0815 128.24 61.9935 127.12C60.9055 125.968 59.6255 125.072 58.1535 124.432C56.7135 123.76 55.1135 123.424 53.3535 123.424C50.9535 123.424 48.8735 123.872 47.1135 124.768C45.3855 125.632 43.9455 126.768 42.7935 128.176C41.6735 129.584 40.8415 131.12 40.2975 132.784C39.7535 134.448 39.4815 136.08 39.4815 137.68C39.4815 139.312 39.7695 140.864 40.3455 142.336C40.9215 143.808 41.7375 145.104 42.7935 146.224C43.8815 147.344 45.1455 148.24 46.5855 148.912C48.0575 149.552 49.6735 149.872 51.4335 149.872ZM82.1715 141.712C81.9795 143.28 82.1555 144.688 82.6995 145.936C83.2755 147.152 84.1395 148.112 85.2915 148.816C86.4435 149.52 87.8035 149.872 89.3715 149.872C91.0035 149.872 92.4755 149.52 93.7875 148.816C95.1315 148.112 96.2195 147.152 97.0515 145.936C97.9155 144.688 98.4435 143.28 98.6355 141.712L101.372 119.296H106.124L103.388 141.856C103.068 144.384 102.236 146.592 100.892 148.48C99.5475 150.368 97.8355 151.824 95.7555 152.848C93.6755 153.872 91.3555 154.384 88.7955 154.384C86.3955 154.384 84.2675 153.872 82.4115 152.848C80.5875 151.824 79.2115 150.368 78.2835 148.48C77.3875 146.592 77.0835 144.384 77.3715 141.856L80.1555 119.296H84.9075L82.1715 141.712ZM125.465 119.296C127.033 119.296 128.473 119.504 129.785 119.92C131.129 120.336 132.281 120.944 133.241 121.744C134.233 122.544 135.001 123.536 135.545 124.72C136.089 125.872 136.361 127.216 136.361 128.752C136.361 130.192 136.121 131.648 135.641 133.12C135.161 134.56 134.393 135.904 133.337 137.152C132.313 138.368 130.969 139.36 129.305 140.128C127.641 140.864 125.641 141.232 123.305 141.232H118.313L116.777 154H111.977L116.249 119.296H125.465ZM123.737 136.768C125.209 136.768 126.441 136.512 127.433 136C128.425 135.488 129.209 134.848 129.785 134.08C130.393 133.28 130.825 132.464 131.081 131.632C131.369 130.8 131.513 130.064 131.513 129.424C131.513 128.528 131.305 127.648 130.889 126.784C130.473 125.92 129.817 125.216 128.921 124.672C128.025 124.096 126.841 123.808 125.369 123.808H120.473L118.889 136.768H123.737ZM137.736 154H133.176L152.76 117.856H153.048L163.752 154H158.424L150.552 125.296L154.152 123.136L137.736 154ZM143.688 140.848H156.6L157.656 144.88H141.864L143.688 140.848ZM191.409 126.112C190.289 125.408 189.025 124.784 187.617 124.24C186.209 123.696 184.817 123.408 183.441 123.376C182.321 123.344 181.361 123.472 180.561 123.76C179.793 124.016 179.137 124.368 178.593 124.816C178.081 125.264 177.697 125.776 177.441 126.352C177.185 126.928 177.041 127.488 177.009 128.032C176.945 129.024 177.217 129.904 177.825 130.672C178.465 131.44 179.313 132.128 180.369 132.736C181.425 133.312 182.529 133.872 183.681 134.416C185.025 135.024 186.305 135.744 187.521 136.576C188.769 137.376 189.761 138.416 190.497 139.696C191.233 140.976 191.505 142.64 191.313 144.688C191.217 145.872 190.881 147.056 190.305 148.24C189.761 149.424 188.977 150.48 187.953 151.408C186.961 152.336 185.713 153.072 184.209 153.616C182.737 154.16 181.009 154.4 179.025 154.336C177.521 154.272 176.081 154.048 174.705 153.664C173.361 153.248 172.097 152.736 170.913 152.128C169.761 151.488 168.721 150.768 167.793 149.968L170.289 146.464C170.993 147.104 171.825 147.712 172.785 148.288C173.745 148.832 174.769 149.28 175.857 149.632C176.977 149.952 178.065 150.144 179.121 150.208C180.497 150.208 181.713 149.984 182.769 149.536C183.857 149.056 184.721 148.384 185.361 147.52C186.033 146.624 186.417 145.6 186.513 144.448C186.577 143.424 186.321 142.528 185.745 141.76C185.201 140.96 184.465 140.272 183.537 139.696C182.641 139.088 181.649 138.544 180.561 138.064C179.569 137.616 178.545 137.104 177.489 136.528C176.465 135.952 175.521 135.296 174.657 134.56C173.793 133.824 173.121 132.928 172.641 131.872C172.193 130.816 172.049 129.584 172.209 128.176C172.369 126.32 172.945 124.72 173.937 123.376C174.929 122.032 176.225 121.008 177.825 120.304C179.457 119.6 181.281 119.248 183.297 119.248C184.801 119.312 186.177 119.52 187.425 119.872C188.673 120.192 189.809 120.592 190.833 121.072C191.857 121.552 192.785 122.08 193.617 122.656L191.409 126.112ZM216.14 119.296H236.684L236.108 123.712H220.364L219.02 134.848H232.844L232.268 139.264H218.444L216.668 154H211.868L216.14 119.296ZM244.406 119.296H266.918L266.39 123.616H248.63L247.334 134.416H263.174L262.598 138.784H246.758L245.462 149.536H263.894L263.366 154H240.134L244.406 119.296ZM275.957 154H271.493L275.909 118.192H275.957L290.981 144.016L289.013 143.632L310.325 118.192H310.373L305.957 154H301.349L304.469 128.752V131.104L289.109 149.632H289.013L277.973 131.104L279.029 128.944L275.957 154ZM320.296 119.296H325.048L320.824 154H316.024L320.296 119.296ZM360.885 155.104H360.741L337.269 127.792L338.517 128.224L335.445 154H330.837L335.205 118.24H335.397L358.581 145.648L357.573 145.312L360.645 119.296H365.253L360.885 155.104ZM375.327 119.296H380.079L375.855 154H371.055L375.327 119.296ZM415.916 155.104H415.772L392.3 127.792L393.548 128.224L390.476 154H385.868L390.236 118.24H390.428L413.612 145.648L412.604 145.312L415.676 119.296H420.284L415.916 155.104ZM427.143 154H422.583L442.167 117.856H442.455L453.159 154H447.831L439.959 125.296L443.559 123.136L427.143 154ZM433.095 140.848H446.007L447.063 144.88H431.271L433.095 140.848ZM480.815 126.112C479.695 125.408 478.431 124.784 477.023 124.24C475.615 123.696 474.223 123.408 472.847 123.376C471.727 123.344 470.767 123.472 469.967 123.76C469.199 124.016 468.543 124.368 467.999 124.816C467.487 125.264 467.103 125.776 466.847 126.352C466.591 126.928 466.447 127.488 466.415 128.032C466.351 129.024 466.623 129.904 467.231 130.672C467.871 131.44 468.719 132.128 469.775 132.736C470.831 133.312 471.935 133.872 473.087 134.416C474.431 135.024 475.711 135.744 476.927 136.576C478.175 137.376 479.167 138.416 479.903 139.696C480.639 140.976 480.911 142.64 480.719 144.688C480.623 145.872 480.287 147.056 479.711 148.24C479.167 149.424 478.383 150.48 477.359 151.408C476.367 152.336 475.119 153.072 473.615 153.616C472.143 154.16 470.415 154.4 468.431 154.336C466.927 154.272 465.487 154.048 464.111 153.664C462.767 153.248 461.503 152.736 460.319 152.128C459.167 151.488 458.127 150.768 457.199 149.968L459.695 146.464C460.399 147.104 461.231 147.712 462.191 148.288C463.151 148.832 464.175 149.28 465.263 149.632C466.383 149.952 467.471 150.144 468.527 150.208C469.903 150.208 471.119 149.984 472.175 149.536C473.263 149.056 474.127 148.384 474.767 147.52C475.439 146.624 475.823 145.6 475.919 144.448C475.983 143.424 475.727 142.528 475.151 141.76C474.607 140.96 473.871 140.272 472.943 139.696C472.047 139.088 471.055 138.544 469.967 138.064C468.975 137.616 467.951 137.104 466.895 136.528C465.871 135.952 464.927 135.296 464.063 134.56C463.199 133.824 462.527 132.928 462.047 131.872C461.599 130.816 461.455 129.584 461.615 128.176C461.775 126.32 462.351 124.72 463.343 123.376C464.335 122.032 465.631 121.008 467.231 120.304C468.863 119.6 470.687 119.248 472.703 119.248C474.207 119.312 475.583 119.52 476.831 119.872C478.079 120.192 479.215 120.592 480.239 121.072C481.263 121.552 482.191 122.08 483.023 122.656L480.815 126.112ZM485.108 151.744C485.108 150.944 485.412 150.272 486.02 149.728C486.66 149.184 487.316 148.912 487.988 148.912C488.532 148.912 489.028 149.136 489.476 149.584C489.924 150.032 490.148 150.576 490.148 151.216C490.148 151.76 490.004 152.24 489.716 152.656C489.428 153.072 489.06 153.408 488.612 153.664C488.196 153.888 487.764 154 487.316 154C486.74 154 486.228 153.792 485.78 153.376C485.332 152.96 485.108 152.416 485.108 151.744Z" fill="#0D0D0D"/>
<rect x="156" y="171" width="381" height="17" fill="#FF004D"/>
<path d="M5 0H386V17H5V0Z" fill="#0D0D0D"/>
</svg>
